HIERARCHY
ROOT pelvis
{
  OFFSET 0 100 0
  CHANNELS 6 Xposition Yposition Zposition Zrotation Xrotation Yrotation
  JOINT pelvis_right_femur
  {
    OFFSET -10.78128 -3.44521 -0.5502486
    CHANNELS 3 Zrotation Xrotation Yrotation
    JOINT right_femur_tibia
    {
      OFFSET -0.8047443 -44.0398 -0.1307829
      CHANNELS 3 Zrotation Xrotation Yrotation
      JOINT right_tibia_foot
      {
        OFFSET 3.006224 -47.83518 -5
        CHANNELS 3 Zrotation Xrotation Yrotation
        End Site
        {
          OFFSET 0 -5 15
        }
      }
    }
  }
  JOINT pelvis_left_femur
  {
    OFFSET 10.78128 -3.44521 -0.5502486
    CHANNELS 3 Zrotation Xrotation Yrotation
    JOINT left_femur_tibia
    {
      OFFSET 0.8047443 -44.0398 -0.1307829
      CHANNELS 3 Zrotation Xrotation Yrotation
      JOINT left_tibia_foot
      {
        OFFSET -4.370144 -48.10324 -4.275266
        CHANNELS 3 Zrotation Xrotation Yrotation
        End Site
        {
          OFFSET 0 -5 15
        }
      }
    }
  }
  JOINT pelvis_spine1
  {
    OFFSET 0 6.468898 -3.129235
    CHANNELS 3 Zrotation Xrotation Yrotation
    JOINT spine1
    {
      OFFSET 0 23.15396 4.99043
      CHANNELS 3 Zrotation Xrotation Yrotation
      JOINT spine2
      {
        OFFSET 0 20.79997 -5.064912
        CHANNELS 3 Zrotation Xrotation Yrotation
        JOINT neck
        {
          OFFSET 0 14.38658 9.616178
          CHANNELS 3 Zrotation Xrotation Yrotation
          End Site
          {
            OFFSET 0 20 0
          }
        }
      }
      JOINT right_manubrium
      {
        OFFSET -5.722621 16.35077 3.967754
        CHANNELS 3 Zrotation Xrotation Yrotation
        JOINT right_clavicle
        {
          OFFSET -13.16364 1.694482 -4.693211
          CHANNELS 3 Zrotation Xrotation Yrotation
          JOINT right_humerus
          {
            OFFSET -28.5034 -0.3100689 -2.792744
            CHANNELS 3 Zrotation Xrotation Yrotation
            JOINT right_radius
            {
              OFFSET -25.15693 0.02248979 -1.271978
              CHANNELS 3 Zrotation Xrotation Yrotation
              End Site
              {
                OFFSET -15 0 0
              }
            }
          }
        }
      }
      JOINT left_manubrium
      {
        OFFSET 5.722621 16.35077 3.967754
        CHANNELS 3 Zrotation Xrotation Yrotation
        JOINT left_clavicle
        {
          OFFSET 13.16364 1.694482 -4.693211
          CHANNELS 3 Zrotation Xrotation Yrotation
          JOINT left_humerus
          {
            OFFSET 29.39168 -1.063119 -2.237045
            CHANNELS 3 Zrotation Xrotation Yrotation
            JOINT left_radius
            {
              OFFSET 24.59957 -0.9528479 0.9047498
              CHANNELS 3 Zrotation Xrotation Yrotation
              End Site
              {
                OFFSET 15 -0 -0
              }
            }
          }
        }
      }
    }
  }
}
MOTION
Frames: 11
Frame Time: 0.0416666666667
-879.2009 96.59013 2607.74 -4.208524 -3.27009 -52.8494 5.842258 -1.783567 0.6779366 -0 9.389774 -0 -8.858625 -6.429296 -2.458 -2.109519 -9.460015 -5.828121 -0 61.36163 -0 -5.738548 -4.446305 13.17073 -1.873406 -0.3000231 5.263793 2.641243 9.520261 -7.020232 0.4407767 21.83873 6.857062 3.070262 -24.72658 7.720276 5.387139 -18.04429 12.125 85.22624 36.97795 -16.92967 -0 0 11.67446 -11.53215 9.462416 9.236563 3.71022 -19.49008 -3.054759 -90.4596 25.00914 20.62722 0 0 -20.5003 6.980729 10.41828 7.265791
-883.4172 97.20697 2610.955 -4.387131 -3.959941 -53.42156 5.330328 2.654474 0.6522884 -0 7.89824 -0 -8.561989 -7.74024 -1.86185 -1.074277 -14.8477 -4.935566 -0 56.17243 -0 -5.222005 -4.586224 14.23806 -1.719994 -0.3220479 6.068957 1.893414 9.689305 -6.426166 0.4791187 22.1135 6.709792 3.076297 -23.91265 7.511593 5.083213 -18.76792 11.95542 84.64838 37.56231 -15.52338 -0 0 12.90628 -12.98228 10.02514 9.649682 3.666032 -19.43426 -2.970468 -91.35593 25.34534 22.53976 0 0 -19.80445 6.611077 10.84231 8.309707
-887.5048 97.3178 2614.144 -4.436971 -4.163873 -53.88113 5.085583 6.223356 0.5796582 -0 6.981475 -0 -8.32951 -9.353925 -1.291267 0.2190997 -19.26244 -3.839285 -0 48.55708 -0 -4.693601 -4.667594 15.20703 -1.404301 -0.3552492 6.898628 1.051128 9.853287 -5.868209 0.5382972 22.23538 6.615806 3.1183 -22.96813 7.327017 4.628104 -19.50874 11.73145 84.29103 38.18492 -14.36783 -0 0 14.15962 -14.81112 11.07068 10.07882 3.861643 -19.63173 -2.762078 -92.10807 25.51074 24.3363 0 0 -19.70087 6.260358 11.41096 9.457901
-891.5607 96.93273 2617.406 -4.392424 -3.925229 -54.27842 5.079367 9.06472 0.3773011 -0 6.5603 -0 -8.116011 -11.25678 -0.7892311 1.639451 -22.61561 -2.595149 -0 39.52621 -0 -4.176391 -4.604362 16.06849 -0.9492072 -0.3627346 7.675067 0.1892396 10.03362 -5.387848 0.6156065 22.14947 6.548351 3.166829 -21.93386 7.130433 4.010171 -20.21097 11.50847 84.14563 38.65766 -13.45019 -0 0 15.3607 -17.11924 12.57857 10.70826 4.249789 -20.03291 -2.451436 -92.48785 25.30782 25.76107 0 0 -20.18484 5.901255 11.94571 10.62148
-895.6902 96.11803 2620.839 -4.262365 -3.314831 -54.67453 5.224219 11.36593 0.0295206 -0 6.518339 -0 -7.8336 -13.31716 -0.3568371 2.97275 -24.87805 -1.420671 -0 30.05353 -0 -3.767785 -4.425195 16.79141 -0.4625297 -0.3174041 8.314087 -0.5663617 10.22436 -4.998145 0.7061263 21.86114 6.448169 3.160748 -20.95032 6.8961 3.270783 -20.8533 11.36638 84.033 38.70382 -12.55437 -0 0 16.5522 -19.79285 14.24677 11.71696 4.675206 -20.4175 -2.077055 -92.41591 24.63289 26.70607 0 0 -20.89578 5.491965 12.20622 11.65967
-899.9865 94.97951 2624.524 -4.060794 -2.475549 -55.12765 5.376853 13.36915 -0.3962206 -0 6.731266 -0 -7.387478 -15.28014 0.01891236 3.946428 -26.11534 -0.6550955 -0 21.21195 -0 -3.614913 -4.250794 17.3586 -0.09710141 -0.2319511 8.767756 -1.100828 10.38956 -4.6839 0.8052174 21.45316 6.267624 3.058708 -20.18259 6.63174 2.517096 -21.44307 11.35213 83.71721 38.10108 -11.44104 -0 0 17.85078 -22.45284 15.57533 13.07494 4.961123 -20.51436 -1.707421 -92.05829 23.61273 27.25859 0 0 -21.2841 4.974302 12.00989 12.47534
-904.5035 93.63653 2628.496 -3.82815 -1.637917 -55.67707 5.369577 15.33193 -0.7640169 -0 7.106952 -0 -6.748824 -16.82931 0.3424822 4.336781 -26.55155 -0.6221406 -0 14.05754 -0 -3.840241 -4.250253 17.8064 0.04752204 -0.1472061 9.055195 -1.390543 10.49397 -4.418223 0.9094429 21.05073 6.02389 2.892062 -19.69537 6.37662 1.887233 -21.97172 11.43768 83.11319 36.88261 -10.09647 -0 0 19.28192 -24.65678 16.21079 14.48641 5.037591 -20.21305 -1.417618 -91.70914 22.57599 27.58634 0 0 -20.99087 4.310292 11.36225 13.08915
-909.2397 92.19643 2632.723 -3.630231 -1.052138 -56.32879 5.081861 17.39131 -0.9430099 -0 7.657896 -0 -6.029251 -17.7008 0.5980096 4.094842 -26.52414 -1.429623 -0 9.268639 -0 -4.427301 -4.545918 18.22567 -0.0194338 -0.08825953 9.233428 -1.500466 10.53006 -4.183426 1.013625 20.75097 5.787988 2.739159 -19.4257 6.171479 1.480085 -22.39132 11.55593 82.32172 35.34918 -8.722112 -0 0 20.69541 -26.2066 16.19145 15.63631 4.959683 -19.62659 -1.242409 -91.55459 21.81528 27.78809 0 0 -20.06422 3.528264 10.44908 13.5937
-914.1553 90.74941 2637.125 -3.518857 -0.8627152 -57.05105 4.490563 19.45106 -0.8895174 -0 8.55646 -0 -5.438187 -17.75603 0.7698239 3.346763 -26.3133 -2.894161 -0 6.877012 -0 -5.186552 -5.131603 18.69838 -0.2222966 -0.05220968 9.349227 -1.512134 10.51553 -3.977596 1.110229 20.58178 5.619325 2.65349 -19.26822 6.032083 1.313633 -22.65831 11.66277 81.48419 33.83912 -7.51366 -0 0 21.89948 -27.1959 15.80241 16.4157 4.814062 -18.94858 -1.170534 -91.59639 21.41167 27.88575 0 0 -18.80104 2.704909 9.489708 14.06062
-919.2095 89.38186 2641.621 -3.493666 -1.058491 -57.78353 3.643161 21.25357 -0.6455415 -0 10.11483 -0 -5.128895 -16.93335 0.8695147 2.267578 -26.00747 -4.677414 -0 6.42144 -0 -5.861052 -5.891104 19.23553 -0.4889524 -0.02758033 9.425096 -1.476494 10.47666 -3.8059 1.19267 20.52194 5.531472 2.638342 -19.15202 5.950588 1.345255 -22.77353 11.74986 80.68933 32.53966 -6.545802 -0 0 22.80257 -27.8117 15.30064 16.88212 4.648914 -18.31081 -1.176216 -91.74993 21.28656 27.88856 0 0 -17.47182 1.911105 8.618712 14.50728
-924.3851 88.19004 2646.168 -3.524168 -1.555263 -58.45182 2.598677 22.53921 -0.2639503 -0 12.73626 -0 -5.119987 -15.13449 0.9139259 0.9781663 -25.50675 -6.46859 -0 7.379818 -0 -6.232595 -6.684134 19.79104 -0.7806806 -0.006877753 9.467179 -1.413179 10.43664 -3.67306 1.257205 20.54134 5.508569 2.67115 -19.0516 5.91112 1.519665 -22.76647 11.82525 79.97696 31.49154 -5.81014 -0 0 23.40452 -28.18692 14.81007 17.12927 4.471938 -17.76095 -1.241782 -91.93719 21.33053 27.81068 0 0 -16.20972 1.185425 7.877767 14.91926
